<svg width="50" height="50" viewBox="0 0 50 50" fill="none" xmlns="http://www.w3.org/2000/svg">
<path d="M19.7917 41.1458C20.4823 41.1458 21.1447 40.8714 21.6331 40.3831C22.1215 39.8947 22.3958 39.2323 22.3958 38.5416C22.3958 37.851 22.1215 37.1886 21.6331 36.7002C21.1447 36.2118 20.4823 35.9375 19.7917 35.9375C19.101 35.9375 18.4386 36.2118 17.9502 36.7002C17.4619 37.1886 17.1875 37.851 17.1875 38.5416C17.1875 39.2323 17.4619 39.8947 17.9502 40.3831C18.4386 40.8714 19.101 41.1458 19.7917 41.1458ZM36.4583 41.1458C37.149 41.1458 37.8114 40.8714 38.2998 40.3831C38.7881 39.8947 39.0625 39.2323 39.0625 38.5416C39.0625 37.851 38.7881 37.1886 38.2998 36.7002C37.8114 36.2118 37.149 35.9375 36.4583 35.9375C35.7677 35.9375 35.1053 36.2118 34.6169 36.7002C34.1285 37.1886 33.8542 37.851 33.8542 38.5416C33.8542 39.2323 34.1285 39.8947 34.6169 40.3831C35.1053 40.8714 35.7677 41.1458 36.4583 41.1458ZM42.9333 15.7541C42.7889 15.5531 42.5987 15.3893 42.3785 15.2762C42.1582 15.1632 41.9142 15.1042 41.6667 15.1041H15.7083L13.9813 9.92288C13.8777 9.61187 13.6789 9.34132 13.4131 9.14952C13.1472 8.95771 12.8278 8.85437 12.5 8.85413H6.25C5.8356 8.85413 5.43817 9.01875 5.14515 9.31177C4.85212 9.6048 4.6875 10.0022 4.6875 10.4166C4.6875 10.831 4.85212 11.2285 5.14515 11.5215C5.43817 11.8145 5.8356 11.9791 6.25 11.9791H11.375L13.0896 17.125L13.1104 17.1958L17.2688 29.6604C17.3726 29.9712 17.5715 30.2416 17.8372 30.4333C18.103 30.6251 18.4223 30.7286 18.75 30.7291H37.5C37.8281 30.729 38.1478 30.6257 38.414 30.434C38.6802 30.2422 38.8794 29.9715 38.9833 29.6604L43.15 17.1604C43.2274 16.9255 43.2482 16.6757 43.2105 16.4312C43.1729 16.1868 43.0779 15.9548 42.9333 15.7541ZM36.375 27.6041H19.8771L16.7521 18.2291H39.4979L36.375 27.6041Z" fill="#999A47"/>
</svg>
