<svg width="30" height="19" viewBox="0 0 30 19" fill="none" xmlns="http://www.w3.org/2000/svg">
<path d="M28.4915 0.464149C28.8547 0.776248 29.0316 1.13636 29.0316 1.5605V4.19334L14.5158 9.16293L0 4.19334V1.5605C0 1.13636 0.176908 0.776248 0.540036 0.464149C0.903163 0.152049 1.32216 0 1.81564 0H27.2159C27.7094 0 28.1284 0.152049 28.4915 0.464149ZM14.5158 11.6917L29.0316 6.72215V17.1495C29.0316 17.5736 28.8547 17.9337 28.4915 18.2458C28.1284 18.5579 27.7094 18.71 27.2159 18.71H1.81564C1.32216 18.71 0.903163 18.5579 0.540036 18.2458C0.176908 17.9337 0 17.5736 0 17.1495V6.72215L14.5158 11.6917Z" fill="#521712"/>
</svg>
