<?xml version="1.0" encoding="UTF-8"?><svg id="Layer_1" xmlns="http://www.w3.org/2000/svg" viewBox="0 0 637.2 895.31"><defs><style>.cls-1{fill:#fff;}</style></defs><path class="cls-1" d="M85.38,584.46c.11-22.91,1.46-44.68,4.61-66.32,1.02-7.03,2.26-14.03,3.39-21.05.25-1.55.88-2.9,2.12-3.91,1.8-1.48,4.21-1.71,6.29-.59,2.18,1.17,3.32,3.44,2.92,6.06-.52,3.39-1.25,6.76-1.71,10.16-1.36,10.13-2.81,20.26-3.9,30.43-1.84,17.19-2.45,34.45-2.16,51.73.22,13.12.95,26.21,2.34,39.25,4.12,38.75,13,76.32,28.3,112.25,11.69,27.45,26.7,52.9,46.35,75.46,18.76,21.53,40.58,39.11,66.67,51.09,15.95,7.32,32.63,12,50.1,13.85,26.93,2.86,52.9-1.13,78.04-10.91,27.28-10.61,50.93-26.84,72.07-46.89,20.32-19.28,37.29-41.23,51.75-65.16,19.2-31.79,33.28-65.78,43.23-101.51,4.48-16.09,8.03-32.39,10.71-48.88,4.66-28.57,6.66-57.31,5.98-86.24-.04-1.67-.16-3.38.11-5,.46-2.67,2.82-4.46,5.48-4.46,2.72,0,5.1,1.94,5.63,4.65.12.62.15,1.27.17,1.91.57,18.08.02,36.13-1.49,54.16-1.39,16.66-3.65,33.2-6.8,49.61-6.45,33.61-16.36,66.15-30.23,97.47-11.63,26.25-25.78,51.04-43.08,73.99-17.63,23.39-37.91,44.12-61.83,61.16-20.14,14.34-41.92,25.32-65.81,31.98-17.85,4.97-36.03,7.22-54.54,6.38-27.45-1.24-53.12-8.85-77.11-22.18-21.47-11.93-39.99-27.5-56.24-45.83-18.22-20.55-32.69-43.54-44.4-68.31-11.72-24.79-20.28-50.67-26.29-77.41-3.97-17.64-6.76-35.46-8.5-53.46-1.44-14.82-2.04-29.67-2.15-43.49Z"/><path class="cls-1" d="M114.03,571.62c.1-21.24,1.55-42.51,4.7-63.67.2-1.34.37-2.69.58-4.03.59-3.9,3.21-6.06,6.71-5.55,3.27.48,5.19,3.45,4.68,7.16-.81,5.94-1.65,11.87-2.38,17.82-1.6,13.03-2.39,26.11-2.7,39.23-.36,15.28.11,30.55,1.47,45.77,3.32,37.15,11.28,73.2,25.79,107.68,10.24,24.32,23.38,46.88,40.71,66.87,14.6,16.84,31.44,30.9,51.38,41.06,22.38,11.4,46.11,16.39,71.18,14.58,20.44-1.47,39.63-7.47,57.79-16.85,18.41-9.51,34.7-21.91,49.42-36.42,20.2-19.91,36.55-42.7,50.17-67.5,15.81-28.8,27.33-59.27,35.4-91.07,4.31-16.97,7.52-34.16,9.72-51.53,2.21-17.39,3.33-34.85,3.47-52.38,0-1.04.02-2.09.19-3.11.46-2.88,2.89-4.9,5.69-4.81,2.83.08,5.13,2.19,5.49,5.07.1.79.09,1.6.09,2.39-.04,18.97-1.37,37.86-3.85,56.67-4.72,35.72-13.55,70.37-27.01,103.82-12.08,30.03-27.53,58.17-47.46,83.75-16.98,21.79-36.55,40.85-59.84,55.9-17.94,11.59-37.2,20.09-58.13,24.59-14.24,3.07-28.63,4-43.16,2.76-29.67-2.54-55.95-13.66-79.54-31.5-21.19-16.03-38.07-35.94-52.01-58.42-15.31-24.68-26.26-51.26-34.08-79.16-5.18-18.49-8.85-37.28-11.21-56.34-2.17-17.48-3.18-35.02-3.25-52.77Z"/><path class="cls-1" d="M478.42,578.94c-.77,17.87-3.28,35.47-7.73,52.79-7.82,30.38-20.78,58.3-39.9,83.25-14.85,19.38-32.56,35.57-53.88,47.66-13.87,7.86-28.59,13.44-44.28,16.32-14.59,2.68-29.23,2.91-43.88.35-29.97-5.23-54.65-19.92-75.09-42.09-16.33-17.71-27.81-38.32-35.78-60.96-5.84-16.58-9.45-33.65-11.14-51.14-1.55-16.05-1.43-32.09.18-48.13.93-9.23,2.46-18.37,4.42-27.43.18-.85.43-1.72.81-2.5,1.23-2.51,3.99-3.7,6.66-2.96,2.48.69,4.29,3.16,4.06,5.82-.15,1.66-.56,3.3-.9,4.95-3.52,16.89-5.14,33.96-4.83,51.21.41,23.43,4.22,46.26,12.26,68.32,7.7,21.11,18.68,40.25,34.18,56.64,14.59,15.44,31.77,26.89,52.11,33.34,15.62,4.95,31.58,6.33,47.84,4.33,20.96-2.58,39.94-10.33,57.38-22.01,20.51-13.73,36.92-31.47,50.24-52.12,15.56-24.12,25.75-50.39,31.34-78.5,3.1-15.58,4.54-31.3,4.49-47.18,0-.8.02-1.6.14-2.39.44-2.83,2.62-4.73,5.43-4.79,2.9-.06,5.33,1.86,5.7,4.75.24,1.89.15,3.83.17,5.75.02,2.24,0,4.48,0,6.71Z"/><path class="cls-1" d="M197.94,613.25c-.17-12.76,1.05-25.38,3.83-37.84.1-.47.2-.94.36-1.39,1.04-2.9,3.8-4.47,6.62-3.79,3.02.72,4.85,3.34,4.37,6.47-.5,3.23-1.21,6.44-1.74,9.67-2.27,13.97-2.58,27.99-.97,42.06,1.96,17.17,6.79,33.47,14.99,48.7,8.96,16.63,21.07,30.44,37.08,40.66,12.46,7.95,26.03,12.81,40.74,14.36,23,2.42,44.27-2.97,64.05-14.61,19.8-11.64,35.13-27.8,46.94-47.38,11.07-18.36,18-38.21,20.96-59.46,1.03-7.38,1.49-14.79,1.51-22.23,0-.95.04-1.93.24-2.86.55-2.64,2.85-4.49,5.47-4.51,2.69-.02,5.12,1.98,5.6,4.69.15.86.15,1.75.14,2.63-.21,40.12-12.55,76-37.97,107.15-13.17,16.14-29.16,28.85-48.12,37.66-17.5,8.13-35.87,12-55.16,10.77-21.47-1.36-40.81-8.68-57.94-21.68-19.39-14.72-32.69-33.95-41.28-56.56-6.42-16.9-9.48-34.45-9.72-52.51Z"/><path class="cls-1" d="M334.57,597.35c-37.03-.22-72.03-8.57-104.59-26.39-27.49-15.04-50.24-35.34-67.33-61.75-4.13-6.38-7.76-13.04-10.92-19.95-.36-.79-.69-1.63-.86-2.48-.53-2.68.82-5.22,3.25-6.29,2.52-1.1,5.39-.26,6.99,2.06.32.46.58.96.81,1.46,16.22,34.79,42.26,60.09,75.76,78.08,19.44,10.44,40.15,17.21,61.91,20.86,14.57,2.44,29.23,3.4,43.97,2.72,33.95-1.57,65.82-10.42,95.07-27.99,23.86-14.33,43.38-33.1,57.71-57.09,1.22-2.04,2.74-3.54,5.26-3.62,4.01-.13,6.86,3.73,5.52,7.52-.31.89-.81,1.73-1.3,2.55-12.69,21.17-29.38,38.62-49.51,52.8-22.36,15.75-47.03,26.24-73.69,32.22-15.73,3.52-33.12,5.33-48.05,5.28Z"/><path class="cls-1" d="M339.28,356.4c43.2.88,78.73,17.8,106.15,51.27,15.88,19.38,25.85,41.69,31.34,66.06.7,3.11,1.36,6.24,1.85,9.4.64,4.16-2.49,7.32-6.51,6.75-2.45-.34-4.26-2.19-4.82-4.99-.38-1.88-.67-3.77-1.06-5.65-4.41-21.4-12.56-41.2-25.49-58.9-17.22-23.55-39.64-39.83-67.83-47.81-15.72-4.45-31.73-5.6-47.97-3.77-26.43,2.98-50.1,12.93-71.48,28.49-25.35,18.45-44.23,42.28-57.8,70.43-.45.93-.85,1.91-1.43,2.76-1.61,2.37-4.42,3.15-6.98,2.04-2.44-1.06-3.75-3.56-3.23-6.3.15-.77.41-1.55.75-2.26,17.54-36.75,43.11-66.26,78.62-86.7,17.13-9.86,35.51-16.3,55.07-19.23,6.88-1.03,13.82-1.56,20.82-1.6Z"/><path class="cls-1" d="M409.51,616.73c-.23,24.19-6.89,46.33-21.66,65.7-12.76,16.74-29.17,28.36-49.76,33.38-24.97,6.09-48.08,1.29-69.05-13.32-18.21-12.68-30.2-30.1-37.16-51.03-6.54-19.64-7.36-39.62-3-59.83.17-.78.37-1.56.66-2.3,1.12-2.88,3.8-4.29,6.74-3.58,2.8.68,4.64,3.39,4.17,6.38-.55,3.47-1.43,6.89-1.83,10.38-3.66,32.14,4.62,60.38,28.08,83.32,11.39,11.13,25.19,17.97,41,20.27,16.98,2.46,32.94-.85,47.67-9.63,15.61-9.3,26.73-22.63,34.13-39.11,7.4-16.49,9.89-33.78,8.06-51.72-.12-1.19-.36-2.38-.39-3.57-.08-3.21,1.94-5.61,4.99-6.03,2.82-.4,5.61,1.41,6.15,4.48.63,3.61.88,7.29,1.18,10.95.14,1.75.02,3.51.02,5.27Z"/><path class="cls-1" d="M330.52,444.15c12.94.11,24.41,4.43,34.61,12.24,10.78,8.25,18.47,18.95,24.19,31.13,6.08,12.93,9.47,26.59,10.78,40.79.19,2.07.4,4.14.43,6.22.04,3.43-2.05,5.86-5.12,6.14-3.17.29-5.77-1.84-6.23-5.32-.34-2.61-.38-5.26-.68-7.88-1.73-15.34-5.91-29.9-13.92-43.21-4.46-7.4-9.89-13.98-16.9-19.1-15.64-11.43-32.19-12.6-49.38-3.84-9.81,5-17.51,12.52-23.99,21.31-9.59,13.01-15.53,27.64-19.08,43.31-.58,2.57-.89,5.2-1.53,7.75-1.12,4.46-6.12,6.09-9.37,3.12-1.76-1.6-2.22-3.66-1.75-5.92.97-4.61,1.84-9.25,3.05-13.79,4.13-15.43,10.65-29.76,20.38-42.51,7.96-10.44,17.51-19.05,29.49-24.71,7.91-3.74,16.22-5.8,25.02-5.73Z"/><path class="cls-1" d="M373.89,545.69c-.54,6.2-.98,12.42-1.65,18.61-.32,2.97-2.3,4.83-4.86,5.16-3.78.49-6.74-2.46-6.43-6.47.25-3.27.7-6.52.88-9.79.92-16.22-.83-32.07-6.83-47.29-2.18-5.53-5.01-10.7-8.85-15.27-3.45-4.11-7.5-7.45-12.77-8.92-4.76-1.32-9.34-.59-13.71,1.62-4.2,2.13-7.65,5.21-10.65,8.79-6.1,7.27-10.11,15.66-13.1,24.59-4.41,13.16-6.16,26.73-6.06,40.57,0,.96.04,1.93-.11,2.87-.43,2.84-2.9,4.9-5.69,4.83-2.73-.07-5.02-2.07-5.48-4.81-.09-.55-.14-1.11-.15-1.67-.35-17.85,2.27-35.2,8.96-51.82,3.88-9.64,9.01-18.53,16.53-25.86,5.48-5.35,11.76-9.29,19.42-10.72,6.96-1.3,13.5-.09,19.69,3.24,5.38,2.89,9.71,6.98,13.4,11.79,6.67,8.72,10.66,18.67,13.36,29.2,2.63,10.27,3.73,20.74,4.11,31.35Z"/><path class="cls-1" d="M388.68,567.41c-4.41.06-6.97-2.13-7.29-5.09-.32-2.94,1.65-5.55,4.78-6.23,2.89-.62,5.82-1.02,8.68-1.75,14.96-3.79,28.56-10.54,41.23-19.23,8-5.49,15.37-11.72,21.74-19.08,4.36-5.04,8.15-10.44,10.43-16.79.9-2.49,2.75-3.95,5.43-3.99,2.33-.03,4.14,1.07,5.22,3.2.9,1.77.68,3.51-.02,5.32-2.03,5.25-4.82,10.07-8.19,14.57-6.96,9.3-15.41,17.05-24.77,23.86-14,10.18-29.17,18.05-45.92,22.66-4.15,1.14-8.4,1.9-11.34,2.56Z"/><path class="cls-1" d="M269.19,560.35c.01,3.69-3.32,6.44-7,5.51-3.01-.76-5.97-1.75-8.86-2.89-15.26-6.01-28.74-14.9-40.96-25.74-10.23-9.07-19.18-19.21-25.87-31.23-2.69-4.84-4.77-9.92-6.07-15.3-.36-1.5-.53-3,.12-4.46,1-2.28,2.83-3.43,5.25-3.55,2.34-.11,4.53,1.41,5.39,3.69.39,1.04.57,2.16.87,3.23,1.64,6.09,4.59,11.56,8.09,16.74,8.62,12.73,19.59,23.13,32.06,32,9.94,7.07,20.56,12.84,32.33,16.34,3.1.92,4.64,2.93,4.65,5.65Z"/><path class="cls-1" d="M383.77,447.1c-7.54-.03-13.1-4.5-15.06-11.31-2.43-8.47,2.46-17.61,10.72-20.03,8.02-2.35,14.84,1.75,16.57,9.95.2.93.44,1.86.82,2.72,2.03,4.53,1.38,8.75-1.55,12.62-3.11,4.1-7.43,5.87-11.5,6.05Z"/><path class="cls-1" d="M271.11,806.27c-.18,1.26-.3,3.02-.7,4.71-1.19,5.02-5.38,8.83-10.27,9.48-5.8.77-10.87-1.59-13.42-6.27-1.7-3.11-1.67-6.42-1.07-9.79.16-.92.3-1.9.19-2.82-.59-4.68,1.52-8.65,5.88-10.38,7.66-3.05,15.85.16,18.33,8.22.3.99.58,2,.74,3.02.17,1.1.19,2.22.32,3.84Z"/><path class="cls-1" d="M408.45,487.02c-5.26-.19-9.21-2.24-11.46-6.85-2.36-4.84-2.5-9.84-.32-14.81,1.09-2.5,2.97-4.07,5.71-4.6.8-.16,1.64-.56,2.25-1.1,2.88-2.49,6.07-3.05,9.59-1.68,4.27,1.66,6.77,4.91,8.01,9.22,2.52,8.72-2.68,17.62-11.4,19.5-.85.18-1.73.24-2.38.32Z"/><path class="cls-1" d="M228.85,775.28c-.08,5.71-3.3,9.93-8.96,11.66-6.24,1.91-12.54-.09-15.67-5.11-2.17-3.49-3.06-7.37-2.82-11.46.18-3.05,1.81-4.99,4.78-5.86.79-.23,1.38-.54,1.91-1.23,2.04-2.68,4.8-3.77,8.05-2.85,6.25,1.76,10.87,5.32,12.37,12.01.21.93.23,1.9.34,2.85Z"/><path class="cls-1" d="M420.49,525.54c-1.19-.12-2.41-.12-3.57-.37-5.74-1.25-8.85-6.23-7.66-12.38.75-3.89,2.7-7.14,5.82-9.64,2.88-2.3,6.12-2.92,9.69-2.01.92.23,1.88.32,2.83.4,2.49.2,4.9.66,7.07,1.99,3.51,2.15,4.87,5.41,3.96,9.41-.84,3.7-3.09,6.43-6.05,8.63-3.58,2.66-7.64,3.89-12.1,3.96Z"/><path class="cls-1" d="M501.47,625.97c.07,3.31-1.15,7.06-3.97,10.13-3.11,3.38-6.91,5.14-11.6,4.01-4.62-1.11-7.99-5.09-8.01-9.83-.01-2.85.3-5.75.91-8.53.83-3.79,3.05-6.83,6.24-9.08,5.28-3.73,11.32-2.28,14.42,3.41,1.33,2.44,1.99,5.4,2.03,9.88Z"/><path class="cls-1" d="M159.63,630.36c-.03,6.49-4.29,12.47-9.97,13.99-5.14,1.38-10.28-.67-12.86-5.37-2.33-4.23-2.75-8.79-1.57-13.44.62-2.45,2.24-4.18,4.6-5.16.65-.27,1.33-.54,1.91-.94,5.43-3.75,12.76-1.48,16,3.87,1.31,2.17,1.95,4.52,1.9,7.06Z"/><path class="cls-1" d="M341.67,418.12c.01,7.16-5.63,11.99-12.1,11-2.9-.44-5.62-1.23-7.64-3.54-.2-.23-.48-.42-.75-.57-4-2.07-4.99-5.63-4.55-9.7.61-5.68,5.67-11.37,11.17-12.86,3.78-1.03,6.95,0,9.51,2.86.84.94,1.57,2.04,2.07,3.19,1.41,3.25,1.89,6.73,2.3,9.62Z"/><path class="cls-1" d="M327.91,808.76c-.18,5.68-3.18,10.09-8.05,11.66-5.65,1.82-11.7-.92-14.35-6.52-.97-2.05-1.64-4.25-1.34-6.49.4-3.07.88-6.18,1.83-9.1,1.52-4.64,6.62-6.72,11.64-4.98,5.04,1.75,7.72,5.72,9.33,10.52.53,1.57.64,3.27.94,4.91Z"/><path class="cls-1" d="M363.2,612.52c7.29.03,12,4.58,12.66,12.23.53,6.08-2.91,11.81-8.4,13.98-5.13,2.03-10.31-.19-12.42-5.26-.54-1.31-1.18-2.59-1.88-3.82-2.21-3.86-2.32-7.76-.15-11.61,2.21-3.92,5.79-5.52,10.18-5.51Z"/><path class="cls-1" d="M323.04,567.82c-8.36,0-14.12-8.27-11.48-16.54,1.19-3.7,3.31-6.55,7.37-7.42.31-.07.64-.19.94-.15,2.84.3,5.75.35,8.5,1.01,4.05.98,6.98,5.05,7.29,9.45.49,6.84-5.82,13.64-12.64,13.65Z"/><path class="cls-1" d="M158.99,548.06c.04,6.45-3.41,11.06-8.96,12.41-6.19,1.5-12.06-2.43-12.93-8.75-.19-1.4-.22-2.9.06-4.28.78-3.86,2.51-7.41,4.61-10.67,2.66-4.14,8.14-4.53,11.91-1.2,2.88,2.54,4.25,5.9,4.97,9.58.21,1.09.27,2.21.35,2.91Z"/><path class="cls-1" d="M489.75,549.36c.21-3.8,1.76-7.99,5.08-11.38,5.36-5.49,13.12-3.81,15.62,3.44.8,2.31,1.34,4.79,1.51,7.22.53,7.64-6.64,13.82-14.04,12.27-4.93-1.03-8.16-5.24-8.16-11.55Z"/><path class="cls-1" d="M461.53,718.21c-.35,5.65-1.87,9.92-5.63,13.13-2.29,1.95-4.94,2.88-8,2.35-2.43-.42-4.52-1.6-5.55-3.77-2.1-4.44-3.56-9.08-2-14.09,1.57-5.06,5.49-8.41,10.26-8.79,4.41-.35,8.1,1.8,9.67,5.93.73,1.91.96,4,1.25,5.24Z"/><path class="cls-1" d="M414.56,769.65c-2.77-.07-5.86-1.55-7.59-5.03-1.73-3.48-1.06-6.84,1.23-9.9,1.71-2.28,3.89-4.01,6.43-5.27,2-.99,4.01-1.96,6.06-2.82,2.24-.94,4.54-1.5,6.98-.63,3.11,1.11,4.94,3.77,4.88,7.2-.15,7.81-9.11,16.5-17.99,16.44Z"/><path class="cls-1" d="M215.9,498.64c.62-2.12,1.07-4.32,1.91-6.35,1.15-2.77,3.38-4.36,6.36-4.86.55-.09,1.1-.18,1.64-.33,2.74-.72,4.72.14,6.83,2.15,2.88,2.74,4.57,6.11,6.28,9.49,2.79,5.5.09,10.96-5.95,12.27-4.46.97-8.36-.19-11.69-3.29-.58-.54-1.15-1.11-1.75-1.62-2.28-1.93-3.36-4.39-3.63-7.46Z"/><path class="cls-1" d="M282.07,620.96c-.15,3.81-2.5,7.8-7.4,10.07-3.66,1.7-7.48.95-10.39-1.83-4.04-3.87-5.66-11.78-3.44-16.92,1.1-2.55,3.04-4.08,5.8-4.41,1.97-.24,3.97-.4,5.96-.37,2.98.05,5.35,1.41,7.11,3.82,1.62,2.2,2.41,4.93,2.36,9.65Z"/><path class="cls-1" d="M268.52,434.44c.16-1.58.15-3.2.51-4.74,1.52-6.55,8.22-9.18,13.83-5.47,1.53,1.01,3.02,2.09,4.49,3.19,1.47,1.09,2.27,2.53,2.57,4.41.39,2.37.81,4.65.26,7.09-1.14,5.07-4.92,8.42-10.06,8.64-5.02.21-9.69-3.11-11.04-7.89-.24-.84-.39-1.71-.47-2.58-.08-.87-.02-1.75-.02-2.63-.02,0-.04-.01-.07-.02Z"/><path class="cls-1" d="M171.63,686.31c-.14,3.19-.76,5.64-2.04,7.91-2.13,3.78-6.56,5.17-10.05,3.23-.48-.27-1.02-.51-1.55-.58-4.1-.59-5.95-3.41-6.88-7.03-.38-1.47-.73-2.81-1.63-4.13-1.56-2.27-1.17-4.77.41-6.93,2.76-3.79,6.33-6.17,11.25-5.2,5.18,1.02,8.39,4.35,9.9,9.32.39,1.28.46,2.66.59,3.41Z"/><path class="cls-1" d="M486.74,668.5c-.29,5.46-1.76,10.05-6.23,13.15-.97.67-2.07,1.23-3.19,1.57-4.95,1.52-9.83-1.32-10.56-6.43-.57-4.02-.33-8.11.77-12.06.71-2.51,2.15-4.62,4.29-6.18,4.55-3.33,10.41-2.03,13.1,2.9,1.25,2.29,1.74,4.77,1.81,7.05Z"/><path class="cls-1" d="M237.21,470.2c.14-3.22,1.33-6.33,4.12-8.73.85-.73,1.62-1.55,2.51-2.23,4.23-3.19,9.66-2.7,13.14,1.29,3.17,3.64,3.95,7.79,1.96,12.25-1.59,3.56-4.28,6.15-7.86,7.7-7.08,3.07-14.05-1.95-13.86-10.3Z"/><path class="cls-1" d="M173.32,730.98c0-4.82,3.02-7.79,7.52-7.85,1.16-.01,2.34-.22,3.48-.45,2.64-.54,5.06-.14,7.25,1.47,3.86,2.84,5.7,8.36,4.34,13.04-1.28,4.39-6,8.09-10.72,8.22-3.61.1-6.48-1.51-8.54-4.44-2.17-3.08-3.11-6.6-3.34-9.98Z"/><path class="cls-1" d="M390.95,793.62c-.15,7.02-6.23,12.29-12.79,10.99-2.27-.45-4.2-1.58-5.7-3.31-3.57-4.12-4.6-8.88-3.03-14.08,1.36-4.49,5.24-6.7,9.84-5.87.31.06.63.11.95.14,5.36.52,8.63,3.22,10.03,8.39.33,1.22.47,2.5.7,3.75Z"/><path class="cls-1" d="M328.72,628.45c-.11,4.34-1.74,7.32-5.18,9.06-3.63,1.84-7.19,1.21-10.39-1.07-4.75-3.38-6.86-10.75-1.58-16.6,2.62-2.9,6.29-3.29,10.07-1.96,5.41,1.9,6.58,6.2,7.08,10.57Z"/></svg>