<svg width="28" height="25" viewBox="0 0 28 25" fill="none" xmlns="http://www.w3.org/2000/svg">
<path d="M11.0442 6.12094C10.3323 6.80276 9.7172 7.49973 9.19871 8.1967C8.68023 8.90125 8.42538 9.34822 8.42538 9.56034C8.54841 10.2422 9.41841 11.424 11.0442 13.0982C12.6699 14.7725 14.656 16.1058 16.9936 17.0982C17.9075 16.9619 19.252 16.227 21.0448 14.8937C21.326 14.7194 21.616 14.674 21.9411 14.7422C22.732 14.9164 23.479 15.1512 24.1733 15.4619C24.8675 15.7725 25.4211 16.0679 25.843 16.3634C26.256 16.6512 26.6339 16.9619 26.9766 17.2876C27.3105 17.6134 27.5302 17.8406 27.6357 17.977C27.7324 18.1134 27.8027 18.2194 27.8466 18.2876C27.9257 18.4619 27.9696 18.6285 27.9696 18.8028C27.8114 19.5528 27.5742 20.2422 27.2578 20.8558C26.9414 21.4694 26.6339 21.9619 26.3351 22.3179C26.0363 22.674 25.7024 22.9922 25.3245 23.2649C24.9466 23.5376 24.683 23.7194 24.5248 23.8028C24.3666 23.8861 24.226 23.9467 24.1117 23.9846C23.9887 24.0528 23.8745 24.0906 23.7514 24.0906C23.6284 24.0906 23.5317 24.0755 23.4527 24.0376C23.3296 23.9997 23.0748 23.9316 22.6793 23.8331C21.7654 23.6285 21.0008 23.4391 20.3857 23.2649C19.7705 23.0906 18.7951 22.7497 17.4681 22.2422C16.1411 21.727 14.9548 21.1816 13.9266 20.5982C12.8984 20.0149 11.6681 19.1967 10.2357 18.1361C8.80326 17.0755 7.5378 15.9164 6.42174 14.6437C5.31447 13.3785 4.18083 11.8028 3.02962 9.92397C1.86083 8.03761 0.867803 5.99973 0.0329545 3.81034C-0.0109848 3.63609 -0.0109848 3.48458 0.0329545 3.34822C0.0329545 3.24215 0.0593182 3.13609 0.120833 3.01488C0.182348 2.89367 0.349318 2.67397 0.63053 2.34822C0.911743 2.02246 1.23689 1.727 1.61477 1.4467C1.99265 1.17397 2.55508 0.901246 3.31083 0.628518C4.06659 0.355791 4.91901 0.151246 5.86811 0.014882C6.02629 -0.015421 6.20205 -0.000269512 6.40417 0.0679123C6.56235 0.105791 6.74689 0.181549 6.96659 0.295185C7.18629 0.416397 7.55538 0.636094 8.06508 0.961852C8.58356 1.28761 9.04932 1.64367 9.46235 2.03761C9.87538 2.43155 10.2796 2.93912 10.6487 3.55276C11.0266 4.1664 11.2375 4.81791 11.2727 5.49973C11.3254 5.74216 11.2463 5.9467 11.0442 6.12094Z" fill="#521712"/>
</svg>
