<?xml version="1.0" encoding="UTF-8"?>
<svg xmlns="http://www.w3.org/2000/svg" version="1.1" viewBox="0 0 911.1 521.6">
  <defs>
    <style>
      .cls-1 {
        fill: #999b37;
      }

      .cls-2 {
        fill: #e59e55;
      }

      .cls-3 {
        fill: #4a3f57;
      }
    </style>
  </defs>
  <!-- Generator: Adobe Illustrator 28.7.1, SVG Export Plug-In . SVG Version: 1.2.0 Build 142)  -->
  <g>
    <g id="Layer_1">
      <path class="cls-1" d="M391.5,337.2c-.4-.3-.7-.6-1.1-.8-15.4-8.9-31.5-16-48.7-20.3-13.4-3.3-27-4.2-40.7-3.3-11.3.7-22.6,2-33.9,3.6-2.3.3-4.6.8-6.8,1.2-2.1.4-3.5-.1-3.9-1.4-.4-1.2.4-2.9,2.2-3.6,2.7-1,5.5-1.9,8.3-2.4,15.9-2.8,31.9-4.9,48.1-4.5,10.2.2,20.2,1.6,30.1,4.1.4.1.8.2,1.2.3.1,0,.3,0,.8-.1-.7-.3-1.2-.6-1.7-.8-14.5-5-29.2-8.8-44.4-11-15.5-2.2-31-4.1-46.6-6.1-3.2-.4-6.4-.6-9.5-1-.7,0-1.4-.2-2.1-.4-.9-.2-1.8-.8-1.7-1.7.1-.8.7-1.7,1.4-2,.9-.5,2.1-.7,3.2-.7,4.1.1,8.1.3,12.2.6,6.3.5,12.6,1.2,18.9,1.8,21.5,2,42.8,5,63.6,11.5,21.3,6.6,41.1,16.3,58.8,30.1,3,2.3,5.8,4.8,8.9,7-.7-.8-1.4-1.6-2.1-2.4-22.6-25.6-49.5-45.4-80.6-59.6-13.6-6.2-27.3-12.5-41-18.7-1.2-.6-2.5-1.1-3.6-1.9-1.3-.9-1.6-2.1-1.1-3.1.5-1,1.5-1.4,3.1-.9,3.5,1.2,6.9,2.4,10.3,3.9,14,6.2,28,12.2,41.8,18.7,15.4,7.2,29.7,16.3,43.2,26.6.5.4,1,.8,1.9.9-.5-.6-1-1.2-1.5-1.8-9.1-9.7-18.9-18.6-29.2-27-9.2-7.5-18.4-15.1-27.6-22.7-1-.8-2-1.6-2.9-2.6-.5-.6-1-1.2-1.3-2-.4-.9-.4-1.9.4-2.7.8-.8,1.8-1.1,2.9-.6,1.1.5,2.1,1.1,3.1,1.8,6.7,5.2,13.4,10.4,20,15.7,12.6,10,24.9,20.4,36,32,12.8,13.4,24.1,28,34.6,43.2.5.7,1,1.4,1.8,2-.1-.4-.2-.7-.4-1-7.5-16.6-16.4-32.4-28.4-46.2-21.3-24.7-46.8-43.7-76.6-56.8-9.9-4.4-20-8.4-30-12.6-1.1-.5-2.2-.9-3.2-1.6-.9-.6-1.5-1.5-1.1-2.6.4-1.1,1.4-1.6,2.5-1.5,1.2.1,2.4.3,3.5.7,8.7,3.3,17.5,6.6,26.2,10,19.2,7.6,36.8,17.9,53,30.6,17.8,13.9,33.3,30.1,45.4,49.3,1,1.6,2,3.2,3.3,4.7-.3-.8-.7-1.5-1-2.3-12.9-28-30.9-52.4-53.4-73.5-10.2-9.5-20.3-19-30.4-28.6-.9-.8-1.8-1.7-2.5-2.6-1-1.4-1-2.8-.1-3.8.7-.8,2.2-1.1,3.6-.3,1.8,1.1,3.5,2.2,5.1,3.6,6.9,6,13.7,12,20.5,18.1,10.8,9.9,21.3,20.1,30.7,31.3,16.9,20.2,29.4,42.9,38.9,67.4,1.4,3.5,2.7,7.1,4.3,10.6-.7-3.2-1.2-6.4-2-9.6-3.1-13.5-6.3-27.1-9.5-40.6-2.6-10.9-7.4-20.9-13.4-30.3-9.5-14.8-19.7-29.1-30.5-43-2.4-3-4.7-6.1-7-9.1-.7-.9-1.4-1.3-2.5-1.5-3.2-.6-6.1-2-8.6-4.1-4-3.4-8-6.9-11.9-10.4-.3-.3-.7-.6-.7-.9-.2-1.9-1.7-2.8-2.9-3.9-1.4-1.4-2.8-2.9-4.1-4.4-.9-1-1.3-2.1-.8-3.5.2-.6,0-1.4-.3-1.9-.8-1.8-1.7-3.4-2.4-5.2-.4-1-.5-2.1-.8-3.2-.2-.8-.3-1.6-.7-2.2-1.4-2.8-2.9-5.5-4.3-8.3-.5-.9-1.1-1.9-1.2-2.9,0-1.8-1.1-2.6-2.5-3.5-9.1-6-17.8-12.5-26-19.6-1.5-1.3-2.8-2.9-4-4.4-.5-.5-.9-1.4-.1-1.9.5-.3,1.4-.3,2,0,1,.5,1.9,1.2,2.8,1.8,8.9,6.7,17.7,13.7,26.9,20.1,9.2,6.5,16.5,14.8,23.4,23.6,5.8,7.4,10.6,15.4,14.9,23.7,1.7,3.3,3.8,6.2,6.1,9.1,10.6,13.1,21.2,26.2,30.6,40.3,5.1,7.6,10.3,15.1,14.9,22.9,4.9,8.4,8.3,17.2,10.1,26.8,1.4,7.5,3.5,14.9,5.4,22.4.3,1.3.6,2.6,1.1,3.9-.2-1.6-.3-3.3-.5-4.9-2.7-21.6-6.4-43-10-64.4-2.3-13.6-6-27-9.7-40.3-3-10.8-6.1-21.5-9.2-32.3-.4-1.2-.6-2.5-.9-3.7,0-.4-.2-.8-.1-1.2.1-1.2.1-2.5,1.5-3,.9-.4,2,.1,2.9,1.6.9,1.4,1.6,3,2.1,4.6,3.5,10.9,7,21.9,10.4,32.9,3.6,11.9,7,23.8,9.1,36,1.5,8.3,2.7,16.7,4,25.1,1.3,8.4,2.5,16.8,3.7,25.1.3,2,.5,3.9,1,5.9v-9.5c0-7.8,0-15.5,0-23.2s0-1.3,0-1.9c0-14.4.2-28.8.1-43.2,0-21.6-2.3-43.1-6.8-64.2-2.5-11.6-7.1-22.2-14.4-31.6-5.1-6.5-10.1-13-15.9-18.9-4.9-5-7-11.3-8.1-18.1-1.3-7.8-1.8-15.7-4.3-23.3-1.5-4.3-2.8-8.7-4.2-13-.3-1-.5-2-.8-3-.2-.8,0-1.4.8-1.8,1,.2,1.5,1.1,1.8,2,2.4,7.4,4.9,14.9,7.1,22.4.5,1.8,1.3,3.4,2.4,4.8.9,0,1.8-.2,2.5,0,.7.3,1.3,1.2,1.8,1.9,1.4,2.2,2.8,4.5,4.1,6.7.8-.1,1.7-.5,2.4-.3.7.3,1.4,1,1.9,1.8.9,1.5,1.6,3.1,2.3,4.7.3.7.6,1.4.9,2.2,2.3-.9,3.5.4,4.5,2.1,2.4,4,3.7,8.3,4.6,12.8,1,4.9,1.6,9.8,1.5,14.8,0,.7.2,1.4.6,2,8.6,11.3,12.7,24.4,15.1,38.2,2.1,11.7,3.6,23.5,4.3,35.4.4,5.7.5,11.5.6,17.3.1,10,.2,20,.2,30,0,15.4-.1,30.9-.2,46.3,0,.6,0,1.3.2,2,2.3-10.9,4.4-21.9,7.1-32.7,2.7-10.9,5.7-21.8,9-32.5,3.3-10.7,7.1-21.2,11.1-31.7,4-10.5,8.6-20.8,13-31.4-1.2-.4-2-1.4-2-2.9,0-7.4,0-14.9,1.4-22.2.3-1.5,1-3,1.6-4.5.7-1.6,1.7-3.1,3.6-3,.8-3.1,1.4-5.9,2.3-8.7.8-2.4,2.2-4.3,4.5-5.7.6-.3.9-1.2,1.3-1.9,1.2-2.4,2.2-5,3.5-7.3,1-1.9,2.6-3.3,4.6-2.8,1.7-1.6,3.2-2.8,4.5-4.3.5-.5.7-1.4.8-2.1,1.1-6.1,2.2-12.2,3.4-18.4.2-1.1.6-2.2,1-3.2.4-1,.8-1.9,1.4-2.8.5-.8,1.1-1.8,2.3-1.2,1,.4.6,1.5.6,2.4s-.1.9-.2,1.4c-2.7,10.5-4,21.2-5.2,31.9-.5,4.3-1.7,8.6-2.6,12.9-.1.7-.6,1.3-.9,1.9-7.7,15.3-15.8,30.5-23.1,46-15.1,32.2-26.3,65.9-33.7,100.7-2.6,12.3-4.5,24.7-6.7,37,0,0,0,.1.1.5.4-.4.8-.7,1.1-1.1.4-.5.7-1.1,1.2-1.5,3.2-3.2,4.9-7.1,6.5-11.3,6.2-17.1,15-33,24.9-48.3,10.1-15.8,21.9-30.3,34.1-44.5,5.2-6.1,10.6-11.9,16-17.9.8-.9,1.8-1.8,2.9-2.5.7-.5,1.7-.7,2.4,0,.8.8.3,1.6-.2,2.4-.5.6-1,1.2-1.5,1.9-8.7,10.4-17.6,20.5-25.9,31.2-15.7,20-29.3,41.3-40.2,64.3-1.4,2.9-2.6,5.9-4,8.9.1.1.2.2.4.3,1.3-1,2.5-2.1,3.8-3.1,3.3-2.3,5.8-5.4,8-8.8,8.1-12.8,17.4-24.7,26.4-36.9,5.2-7,10.5-13.9,15.7-20.9.4-.5.8-1,1.3-1.4.8-.7,1.7-.9,2.7-.4,1,.6,1.5,1.5,1.2,2.6-.3,1-.7,2-1.3,2.8-2.2,3.3-4.5,6.6-6.9,9.8-8.8,12.2-17.6,24.4-26.4,36.5-.5.6-.9,1.3-1.1,2.2.4-.2.9-.5,1.3-.8,9-5.8,18.5-10.8,28.1-15.4,1.3-.6,2.4-1.5,3.3-2.7,7.3-9.3,14.6-18.6,21.9-27.9.8-1,1.1-1.9,1.3-3.2,1.3-10.1,4.1-19.5,10.8-27.5,1-1.2,2.1-2.4,3.8-2.8.6-.2,1-.9,1.5-1.4,1.3-1.8,2.6-3.6,4-5.4,1-1.4,2.2-2.6,3.8-2.4,2.2-3.5,4.2-6.8,6.3-9.9,1.2-1.7,2.4-3.5,5-2.9.4,0,.9-.5,1.3-.8,2.7-1.9,5.3-3.8,8.1-5.6,1-.6,1.7-1.3,2-2.4,2.3-7,5.2-13.7,8.7-20.2,1.2-2.2,2.6-4.4,4.2-6.4.8-1.1,2.1-2,3.2-2.8.4-.3,1.3-.1,1.7.2.3.2.3,1,.2,1.5-.2.8-.6,1.5-1.1,2.1-5.7,8.2-9.3,17.4-12.5,26.9-3.4,10.1-8.5,19.3-14.9,27.8-2.6,3.4-5.2,7-8.3,9.9-4.5,4.2-8.4,9-12.5,13.5-9.9,10.9-19.5,22.1-28.2,33.9-.7,1-1.4,1.9-1.9,3.3.7-.3,1.5-.6,2.2-.9,13.9-6.1,27.8-12.2,41.7-18.3,1-.4,1.9-.8,2.9-1.2.5-.2,1.1-.4,1.6-.5.8-.1,1.7-.2,2,.8.3.9-.2,1.6-1,1.9-.8.4-1.6.8-2.4,1.1-11.5,5.2-23,10.4-34.5,15.7-5.7,2.6-11.3,5.5-17,8.3-1.4.7-2.5,1.6-3.4,2.9-9.7,14.1-19.5,28.1-29.3,42.2-1.9,2.7-3.8,5.3-5.5,8.2.3-.2.6-.3.8-.5,15.2-13,32.2-23.4,50.1-32.2,12.8-6.2,25.7-12.1,38.6-18.1,1.6-.7,3.3-1.3,4.9-1.8.7-.2,1.4-.3,2.1-.2,1.8.3,2.5,2,1.2,3.4-.8.9-2,1.6-3.2,2.1-11.5,5.7-23.2,11.2-34.7,17-12.5,6.3-24.6,13.2-36.3,21-12.5,8.3-23.6,18.3-34.4,28.7-4.8,4.6-9.3,9.4-14,14.2-.3.3-.6.7-.7,1.3.2-.1.5-.2.7-.3,16.2-13.1,34.2-23.2,53-32.1,18.5-8.7,37.4-16.5,57.2-22,12.7-3.6,25.6-6.2,38.7-7.9,13.9-1.9,27.8-3.5,41.6-5.1,1.8-.2,3.7-.3,5.5-.4.5,0,1.2,0,1.7.1.5.2,1.3.7,1.3,1.2,0,.6-.3,1.5-.8,1.8-.8.5-1.8.8-2.7.9-7.6,1-15.2,1.9-22.8,3-20.8,3-41.7,5.6-61.9,11.5-18.2,5.3-35.6,12.3-52.7,20.4-13.5,6.4-26.8,13.3-39.3,21.5-.6.4-1.2.8-1.8,1.2,0,0,0,.2-.2.6.8-.3,1.4-.5,2-.9,29.5-14.6,60.4-25.2,92.6-31.9,14-2.9,28-5.6,42.1-8.4,1.2-.2,2.4-.3,3.6-.3s1.8.6,2.1,1.6c.3,1.2-.2,2.1-1.2,2.6-.9.5-1.9.8-2.9,1-12.2,2.7-24.5,5.5-36.7,8.2-19.6,4.2-39,9.1-58,15.9-.9.3-1.8.7-2.6,1.3.5,0,1,0,1.5-.2,20.4-4.9,41-7.5,62-7.4,14.2,0,28.5.5,42.7.8,7.2.1,14.4.4,21.6.7,1.2,0,2.4.2,3.5.6,1,.3,1.7,1.2,1.7,2.4s-.8,2-1.8,2.3c-1,.3-2,.4-3.1.5-2.6,0-5.3.1-7.9.1-16.3,0-32.6-.1-48.9-.2-12.1,0-24.2.3-36.2,1.7-30.9,3.5-60.3,12-88,26.1-4.1,2.1-8.1,4.2-12.1,6.4-.7.4-1.3.8-1.8,1.6.9-.3,1.8-.6,2.6-.9,10.8-3.9,21.9-7.1,33.2-9.3,14.9-3,30-3.2,45.1-2.6,13.4.5,26.6,2.4,39.8,4.4,4,.6,8,1.3,12.1,2,.7.1,1.4.3,2.1.6.9.3,1.6.9,1.5,1.9s-1,1.4-1.9,1.5c-1.4,0-2.7,0-4.1-.1-2.9-.3-5.9-.7-8.8-1.1-20.6-2.8-41.3-4.5-62.2-3.5-11,.5-21.9,2.5-32.6,5-2.3.5-4.7,1.1-7,1.7-9.1,2.5-17.3,6.5-24,13.3-1.2,1.2-2.4,2.4-3.7,3.4-4.1,3.3-8.8,3.2-12.6-.5-1.4-1.4-2.6-3-3.8-4.6-2.5-3.5-4.8-7.2-7.6-10.5-1.6-2-3.8-3.7-6-5-11.2-6.5-23.3-10.6-36.2-11.6-10.3-.8-20.6-1.4-30.9-2.1-3-.2-6.1-.4-9.1-.7-2.4-.3-3.8-1.6-3.7-3.3,0-1.7,1.5-2.9,4-3,4.7-.2,9.4-.5,14.1-.3,9.5.3,19,.8,28.5,1.4,5,.3,9.8,1.3,14.6,2.7.8.2,1.7.4,2.5.6,0,0,0-.2.1-.2h.1ZM504.8,257.9c-.7.3-1.1.4-1.5.6-10.7,6-21.1,12.3-30.8,19.9-1.1.9-2.1,2-2.8,3.2-3.6,6.5-7.4,12.9-10.5,19.6-5.8,12.5-11.1,25.3-16.6,38-.1.3-.1.7-.2.9,22.4-25.9,42.1-54,62.4-82.1h0ZM550.7,190.5l-.6-.2c-4.8,6.4-7.7,13.7-9.4,21.6,2.6-2.7,5.5-5.1,6.4-9,.6-2.5,1.6-4.9,2.3-7.3.5-1.7.9-3.4,1.3-5.1h0ZM580.4,162.2c-.2-.1-.3-.3-.5-.4-2.3,1.6-4.5,3.1-6.8,4.7-.3.2-.4.8-.5,1.3-.3,3.8-1.3,7.4-2.7,10.9-.2.5-.3,1.1-.5,1.7,4.3-5.6,7.7-11.8,10.8-18.1ZM560.5,190.4c.4-.3.7-.4.8-.6,2.1-4.8,4.3-9.6,6.2-14.5.9-2.2,1.3-4.5,1.9-6.8-.2,0-.4-.2-.6-.3-1.3,1.9-2.5,3.8-3.8,5.7-1.6,2.4-2.8,4.7-2.8,7.8,0,2.8-1.1,5.6-1.7,8.6h0ZM392.1,72.1c-.2.5-.3.7-.3.8.1.5.3,1.1.5,1.6,2.4,5.9,4.3,12,4.6,18.4,0,1.7.8,2.6,2.3,3.2-.1-8.7-2.9-16.4-7.2-24h0ZM502.4,100.8c-3.2,3.7-5.5,13.4-4.5,17,1-1.5,2.1-3,3-4.6.3-.5.4-1.2.5-1.8.3-1.7.5-3.4.7-5.2.2-1.8.2-3.6.4-5.4h0ZM332.3,159.7c-.2.1-.3.2-.5.4.8,1.8,1.6,3.5,2.4,5.4.4,1,1.1,1.4,2,1.8,2.4.8,4.8,1.8,7.1,2.8.4.1.8.2,1.7.5-4-4.4-8.2-7.8-12.7-10.7h0ZM351,179.8c-4.4-4.3-9-7.8-14.9-9.1,1.5,2,3.1,3.9,4.8,5.7.2.3.6.5,1,.6,2.9.9,5.9,1.9,9.1,2.9h0ZM456.2,293.1c-.1,0-.3-.2-.4-.2-2.1,2.3-4.6,4.1-5.5,7.4-1.1,4.1-2.6,8.2-3.9,12.3,0,.2-.2.5-.2.7,0,.2,0,.5,0,1.2,3.5-7.4,6.7-14.4,10-21.3h0ZM558.7,181c-2,1.7-3.4,3.7-4.8,5.9-.2.3-.2.8-.2,1.1.7,3-.2,5.8-1,8.6-.2.7-.4,1.4-.5,2.1.2,0,.3,0,.5.1,2.4-5.8,5.1-11.5,6-17.9h0ZM494.6,108.7c-2.4,3.7-3.6,16.6-3.5,21.8,1.3-2.5,2.8-4.5,2.5-7.3-.2-2.3.2-4.6.4-6.9.2-2.5.4-5.1.6-7.6ZM327.6,147.7c.8,1.8,1.6,3.6,2.3,5.4.5,1.2,1.2,1.9,2.4,2.5,2,1.1,3.9,2.4,5.9,3.7.5.3,1,.6,1.5,1-3.2-4.9-7.3-9-12-12.6h0ZM479.2,153.3c.6-1.2,1.3-2.3,1.8-3.6.3-.8.5-1.7.5-2.5,0-3.4-.2-6.7-.3-10,0-2.4,0-4.9,0-7.3-2,7.6-1.7,15.5-2,23.4h0ZM487.6,117.7c-1.6,3.1-3,19.4-1.8,22.8.8-1.6,1.6-3,2.4-4.5-.8-1.3-1.3-2.6-1.3-3.8.1-4.8.5-9.6.8-14.5h0ZM406.9,89.4c1,5.5,1.6,11,1.9,16.5,0,1.1.5,2.1,2,2.6-.9-6.7-.9-13.2-3.9-19.2ZM389.2,74.1c.9,5.7,1.7,11.3,4.3,16.6-.2-5.8-1.8-11.3-4.3-16.6ZM401.1,84.7c1,4.9,2.3,9.7,1.2,14.9.7.6,1.5,1.3,2.4,2-.1-6-1.2-11.6-3.6-17ZM355.8,189.9c.2-.2.4-.4.5-.6-2.8-2.7-5.3-5.7-8.9-7.2-.1.1-.2.3-.4.4,2.9,2.5,5.8,4.9,8.7,7.4h0ZM439.5,315c-2.5,2.7-3.1,6-2.5,9.5.9-3.2,1.7-6.4,2.5-9.5Z"/>
      <path class="cls-2" d="M482.3,464.2c3.6-.3,7,.7,10.2,2.1,3.1,1.3,6,3,8.7,4.9,3.5,2.5,7.1,5.1,10.6,7.6.3.2.5.4.8.6.2.1.3.3.4.5.3.5,0,.9-.5,1-.2,0-.4,0-.7,0-.6-.1-1.3-.2-1.9-.4-4.9-1.3-9.9-2.4-14.9-3.6-2.8-.7-5.6-1.5-8.3-2.6-2.7-1-4.9-2.6-6.7-4.9-.3-.4-.5-.7-.8-1.1-1-1.5-.4-3.7,1.8-4.1.3,0,.7,0,1-.1h0Z"/>
      <path class="cls-2" d="M388.5,463c-2,3-4.9,5-8,6.6-3,1.6-6.1,2.8-9.3,3.7-4.2,1.1-8.4,2.3-12.6,3.5-.3,0-.6.2-1,.2-.2,0-.4,0-.7,0-.5,0-.7-.5-.5-1,.1-.2.3-.4.4-.5.5-.4,1-.8,1.5-1.2,4.1-3,8.1-6.2,12.1-9.3,2.3-1.8,4.7-3.4,7.2-4.8,2.5-1.4,5.1-2.2,8-2.1.4,0,.9,0,1.3,0,1.8.1,3.1,2,2,4-.2.3-.4.6-.6.9h0Z"/>
      <path class="cls-3" d="M580.6,398.1c0-3.5.3-7,.9-10.5,0-.3,0-.6.2-.9.1-.4.5-.7.9-.6.4,0,.6.4.6.8s-.2.9-.2,1.3c-.2,1.4-.4,2.9-.5,4.3-.2,2.4-.3,4.7-.2,7.1,0,2.1.2,4.1.5,6.2.5,3.4,1.2,6.8,2.3,10,1.3,3.7,2.9,7.1,5.2,10.3,2,2.9,4.4,5.3,7.3,7.3,2.5,1.7,5.1,2.9,8.1,3.5,2,.4,4,.5,6,.4,3.8-.3,7.2-1.6,10.4-3.5,2.9-1.8,5.4-4,7.6-6.5,2.8-3.2,5.1-6.9,6.9-10.8,1.9-4,3.2-8.2,4.1-12.6.5-2.4.8-4.9,1-7.4.2-2.2.2-4.4.2-6.7v-.3c0-.4.3-.6.7-.6.3,0,.7.2.8.5,0,.1,0,.2,0,.3,0,2.1,0,4.2-.1,6.4-.3,3.9-.9,7.6-1.9,11.4-1.2,4.4-2.8,8.6-5,12.6s-4.8,7.6-8.2,10.7c-2.6,2.4-5.4,4.5-8.7,5.9-2.3,1-4.7,1.7-7.2,2-4.9.5-9.4-.5-13.7-2.8-2.8-1.5-5.1-3.6-7.2-5.9-2.4-2.7-4.3-5.7-5.8-9-1.7-3.6-2.9-7.3-3.7-11.2-.5-2.6-.9-5.3-1-7.9,0-1.3,0-2.5-.2-3.8h0Z"/>
      <path class="cls-3" d="M584.3,396.1c0-2.8.3-5.6.7-8.4,0,0,0-.2,0-.2,0-.4.5-.6.8-.6.4,0,.7.4.6.8,0,.4,0,.8-.2,1.2-.4,3-.6,6-.5,9,0,2.6.3,5.1.7,7.7.6,3.7,1.7,7.4,3.2,10.8,1.6,3.5,3.7,6.7,6.4,9.4,1.9,1.8,3.9,3.3,6.3,4.3,1.8.8,3.6,1.2,5.5,1.4,3.4.3,6.6-.5,9.7-1.9,2.6-1.3,5-3,7-5.1,2.8-2.8,5-5.9,6.8-9.4,2.2-4.2,3.8-8.6,4.8-13.2.5-2.2.8-4.4,1-6.7.2-1.7.2-3.5.3-5.2,0-.1,0-.2,0-.4,0-.4.3-.6.7-.6.4,0,.7.2.8.6,0,.1,0,.3,0,.4,0,1.6,0,3.2-.2,4.8-.3,3-.7,5.9-1.5,8.8-1.1,4.3-2.6,8.5-4.8,12.4-1.8,3.3-3.9,6.3-6.6,9-2.4,2.4-5.1,4.4-8.2,5.9-2.2,1-4.5,1.7-6.9,1.9-3.2.3-6.2-.2-9.2-1.5-3.2-1.4-5.9-3.5-8.2-6.1-2.1-2.4-3.8-5-5.1-7.9-1.5-3.2-2.6-6.6-3.3-10.1-.5-2.2-.8-4.5-.9-6.8,0-1.5-.1-2.9-.2-4.4h0Z"/>
      <path class="cls-3" d="M591.1,400.8c0-2.7.3-5,.8-7.2,0,0,0-.2,0-.2.1-.4.5-.5.9-.5.4,0,.6.4.6.8,0,.2,0,.5-.1.7-.5,2.6-.7,5.3-.6,7.9.2,2.8.7,5.6,1.8,8.2,1.1,2.8,2.6,5.3,4.8,7.4,2,1.9,4.2,3.3,6.9,4,1.8.5,3.6.6,5.4.4,3-.3,5.7-1.4,8.2-3.2,2.7-1.9,4.8-4.3,6.6-7.1,1.9-3,3.1-6.3,3.8-9.8.4-2,.6-4,.6-6v-.4c0-.4.3-.6.7-.6.3,0,.7.2.8.5,0,.1,0,.2,0,.4,0,4.5-.8,8.8-2.6,13-1.1,2.5-2.5,4.9-4.3,7-2.1,2.5-4.6,4.6-7.5,6-1.8.9-3.8,1.5-5.8,1.7-4.3.5-8.1-.6-11.6-3.1-2.6-1.9-4.5-4.2-6-7-1.2-2.3-2.1-4.8-2.6-7.4-.4-1.9-.5-3.9-.6-5.5h0Z"/>
      <path class="cls-3" d="M610.3,419.1c-3.7,0-7-1.5-9.8-4.2-2.1-2-3.5-4.5-4.3-7.3-.7-2.3-1-4.6-.8-7,0-1.2.2-2.4.5-3.5,0-.5.3-.7.7-.7.5,0,.8.3.8.7,0,.2,0,.4,0,.6-.7,3.8-.5,7.4.9,11,1,2.5,2.5,4.6,4.6,6.2,2,1.6,4.3,2.5,6.9,2.7,2.7.2,5.2-.5,7.6-1.8,2.7-1.5,4.8-3.7,6.4-6.3,1.5-2.5,2.5-5.2,2.8-8.1.1-.9.1-1.8.2-2.7,0-.1,0-.2,0-.3,0-.4.3-.6.7-.6.4,0,.7.2.8.5,0,.1,0,.2,0,.4,0,5.8-2,11-6,15.2-2.1,2.2-4.6,3.8-7.5,4.6-1.3.4-2.7.6-4.2.6h0Z"/>
      <path class="cls-3" d="M612.6,399.9c-4.6,0-9.5-1.3-14-4-3.5-2.1-6.3-4.9-8.4-8.4-.3-.6-.6-1.2-.9-1.8,0-.1-.1-.3-.1-.4,0-.3.2-.6.5-.7.3-.1.6,0,.8.2,0,0,.1.2.2.3,2.1,4.5,5.4,7.8,9.7,10.1,2.5,1.4,5.2,2.3,8,2.8,2.2.4,4.4.5,6.6.4,4.9-.3,9.5-1.8,13.5-4.7,2.4-1.7,4.4-3.9,6-6.4,0,0,0-.2.2-.2.2-.3.6-.3.9-.1s.4.6.3.9c0,.1-.1.2-.2.3-1.7,2.9-4,5.2-6.8,7.1-2.9,2-6.1,3.3-9.5,4-2,.5-4.1.7-6.8.7h0Z"/>
      <path class="cls-3" d="M613.9,368.3c5.7.1,10.3,2.3,13.9,6.7,2.1,2.6,3.4,5.6,4.1,8.8,0,.4.2.7.2,1.1,0,.1,0,.3,0,.5-.1.3-.4.5-.7.4-.3,0-.6-.2-.7-.5,0-.2,0-.5-.1-.7-.6-2.9-1.7-5.5-3.4-7.9-2.2-3-5.1-5.1-8.7-6.2-2-.6-4.1-.8-6.2-.6-3.6.3-6.8,1.7-9.7,3.8-3.3,2.4-5.8,5.5-7.5,9.2,0,.1-.1.2-.2.4-.2.3-.6.4-1,.2-.3-.2-.5-.5-.4-.9,0,0,0-.2,0-.3,2.1-4.3,5-7.9,9-10.5,2.4-1.6,5-2.7,7.9-3.2,1-.2,2.3-.3,3.4-.3h0Z"/>
      <path class="cls-3" d="M599,402.4c0-1.1.1-2.2.4-3.3,0-.1,0-.2.1-.4.2-.3.5-.5.8-.4.3,0,.6.4.6.7,0,.2,0,.4,0,.6-.6,3.2-.2,6.3,1.4,9.1,1.1,2,2.7,3.5,4.7,4.5,3.5,1.6,6.8,1.2,9.9-1,2.2-1.6,3.6-3.9,4.3-6.5.4-1.6.5-3.3.3-5,0,0,0-.2,0-.2,0-.4.3-.7.6-.8.4,0,.8.2.8.6,0,.3,0,.6.1,1,.2,2.7-.3,5.3-1.5,7.7-1.2,2.4-3,4.3-5.5,5.6-1.7.9-3.4,1.3-5.3,1.2-2.9-.1-5.3-1.2-7.4-3.1-2.2-2.1-3.5-4.6-4-7.6-.2-.9-.2-1.8-.2-2.6h0Z"/>
      <path class="cls-3" d="M612.7,379.8c1.7,0,3.2.6,4.5,1.6,1.4,1.1,2.4,2.4,3.1,4,.9,1.9,1.4,4,1.5,6.1,0,.5-.3.9-.8.9-.4,0-.7-.3-.7-.7,0-.4,0-.9-.1-1.3-.3-2.1-.9-4-2-5.8-.8-1.1-1.7-2.1-2.9-2.7-1.8-.9-3.7-.8-5.5,0-1.3.7-2.3,1.6-3.2,2.8-1.2,1.7-2,3.5-2.5,5.5,0,.4-.1.7-.2,1,0,.4-.3.7-.7.7-.4,0-.8-.3-.8-.7,0-.3,0-.5.1-.8.5-2.5,1.4-4.8,3-6.8,1-1.2,2.1-2.3,3.5-3,1.1-.6,2.3-.9,3.7-1h0Z"/>
      <path class="cls-3" d="M618.4,393.1c0,.8-.1,1.5-.2,2.3,0,0,0,.2,0,.3-.1.4-.4.6-.8.5-.4,0-.7-.3-.7-.7,0-.3,0-.7,0-1,.2-2.2,0-4.4-.8-6.5-.3-.7-.7-1.4-1.2-2-.3-.3-.6-.6-.9-.8-.8-.6-1.7-.6-2.6-.1-.5.3-1,.7-1.4,1.1-.8,1-1.3,2.1-1.7,3.3-.5,1.6-.8,3.3-.8,5.1v.4c0,.4-.3.7-.7.7s-.7-.3-.8-.7c0-.3,0-.7,0-1,0-2,.4-4,1.2-5.9.5-1.3,1.2-2.4,2.2-3.4.7-.6,1.4-1.1,2.4-1.4,1-.2,1.9,0,2.8.4.7.4,1.2.9,1.7,1.5.8,1.1,1.3,2.4,1.7,3.7.4,1.4.5,2.8.6,4.3h0Z"/>
      <path class="cls-3" d="M593.8,384.9c.3,0,.6.2.7.5.4,1.7,1.4,3,2.5,4.3,1.7,1.8,3.6,3.2,5.9,4.2.3.1.7.2,1,.4.1,0,.2,0,.3.1.3.2.5.5.4.8,0,.3-.4.6-.7.6-.1,0-.2,0-.4,0-1.1-.3-2.2-.8-3.2-1.4-2.3-1.4-4.3-3.1-5.8-5.3-.7-1-1.2-2-1.5-3.1,0-.2,0-.3,0-.5,0-.3.4-.5.7-.5h0Z"/>
      <path class="cls-3" d="M620.3,396c-.6,0-.9-.3-.9-.6,0-.4.2-.7.6-.8.4-.1.9-.2,1.3-.3,1.9-.5,3.7-1.4,5.3-2.5,1.2-.8,2.3-1.8,3.2-2.9.4-.5.8-1.1,1-1.8,0-.3.3-.5.6-.5.6-.1,1,.4.8,1-.2.4-.3.8-.5,1.2-.6,1-1.4,1.9-2.3,2.7-2.2,2-4.8,3.4-7.7,4.2-.5.1-1,.2-1.4.3h0Z"/>
      <path class="cls-3" d="M619.7,380.2c-1,0-1.7-.6-2-1.6-.3-1.1.5-2.3,1.6-2.5,1-.2,1.8.4,2,1.3,0,.1,0,.2,0,.3.4.9,0,1.8-.7,2.2-.3.2-.7.3-1,.3h0Z"/>
      <path class="cls-3" d="M605,427.2c0,.2,0,.4-.1.7-.3,1.1-1.7,1.6-2.6.9-.6-.4-.8-1-.7-1.7,0-.2,0-.4,0-.6,0-.6.3-1.1.9-1.3,1.1-.4,2.2.2,2.4,1.4,0,.2,0,.4,0,.6h0Z"/>
      <path class="cls-3" d="M624.8,383.2c0,1.1-.6,1.9-1.4,2.1-.9.3-1.8-.2-2.1-1.2-.2-.5-.1-1.1,0-1.6.2-.3.4-.5.8-.6,0,0,.2,0,.3-.1.4-.4.9-.4,1.3-.2.7.3,1,1,1,1.6h0Z"/>
      <path class="cls-3" d="M597.7,424.8c-.8,0-1.4-.4-1.7-1.2,0-.3-.2-.6-.2-.9,0-.5.2-.8.7-1,0,0,.2,0,.2-.2.3-.4.7-.5,1.2-.3.7.2,1.2.6,1.5,1.3.3,1.1-.3,2.1-1.5,2.2h-.2,0Z"/>
      <path class="cls-3" d="M624.5,390.5c0,0-.2,0-.3,0-.8-.1-1.2-.7-1.1-1.5,0-.6.3-1,.8-1.4.4-.3.8-.4,1.2-.3.1,0,.3,0,.4,0,.2,0,.5,0,.8.2.6.3.8.8.6,1.4-.2.6-.6,1-1.2,1.3-.4.2-.8.2-1.2.3h0Z"/>
      <path class="cls-3" d="M632,403.9c0-.2,0-.4,0-.6.1-.6.4-1.1,1-1.4.6-.4,1.3-.2,1.7.4.5.7.5,1.9,0,2.6-.3.4-.7.6-1.2.7-.8,0-1.4-.6-1.4-1.4,0,0,0-.2,0-.3h0Z"/>
      <path class="cls-3" d="M588.6,406.1c-.6,0-1.1-.3-1.3-.9-.2-.5-.3-1-.2-1.6,0-.4.3-.6.6-.8,0,0,.2,0,.2-.1.7-.5,2-.2,2.3,1,.2.8,0,1.5-.7,2-.3.2-.6.3-.9.3h0Z"/>
      <path class="cls-3" d="M612.7,377.8c-.4,0-.8-.1-1.1-.4,0,0,0,0-.2-.1-.5-.2-.6-.7-.6-1.1,0-.8.7-1.6,1.4-1.8.5-.1.9,0,1.3.4,0,0,0,0,0,0,.3.4.6,1.5.5,2-.1.7-.7,1.1-1.5,1.1h0Z"/>
      <path class="cls-3" d="M609.2,427.5c0-.2,0-.4.1-.6,0-.1,0-.2,0-.4,0-.8.7-1.2,1.5-1,0,0,0,0,0,0,1.1.3,1.8,1.9,1.2,2.9-.3.5-.8.8-1.3.8-.7,0-1.1-.4-1.4-1,0-.2-.1-.5-.2-.7h0Z"/>
      <path class="cls-3" d="M618.7,403.8c0,.5-.3,1.1-1,1.4-.7.4-1.5,0-1.8-.7,0-.1,0-.2-.2-.3-.4-.5-.4-1.1,0-1.7.3-.6.9-.7,1.5-.7.9.1,1.4.8,1.4,2h0Z"/>
      <path class="cls-3" d="M610.2,394.2c0-.3.2-.7.5-1,.3-.3.6-.4,1-.3.1,0,.2,0,.3,0,.8,0,1.6.6,1.4,1.7-.1.8-.8,1.4-1.6,1.4-.9,0-1.6-.7-1.6-1.8h0Z"/>
      <path class="cls-3" d="M590.2,393.4c0,1-.6,1.7-1.4,1.7-.9,0-1.5-.7-1.4-1.6,0-.2.1-.5.2-.8,0-.1.1-.3.2-.4,0,0,0-.2.1-.3.4-.6,1.1-.8,1.7-.3.5.5.6,1,.7,1.5h0Z"/>
      <path class="cls-3" d="M634.9,395.1c-.8,0-1.4-.6-1.3-1.5,0-.6.2-1.1.6-1.5.2-.2.3-.3.5-.4.5-.2,1,0,1.3.3,0,0,0,0,0,0,.3.6.5,1.2.4,1.9-.2.7-.8,1.1-1.5,1.1h0Z"/>
      <path class="cls-3" d="M629.9,415.8c0,.6-.2,1.2-.7,1.6-.3.2-.6.4-1,.3-.5,0-.8-.4-.9-.9,0-.2,0-.3-.1-.5-.2-.6,0-1.2.4-1.7.4-.4.9-.6,1.4-.4.5.2.8.6.9,1.1,0,.1,0,.2,0,.4h0Z"/>
      <path class="cls-3" d="M626.1,420.4s0,.1,0,.2c-.2.9-1.1,1.8-2,1.9-.7,0-1.2-.3-1.4-.9,0-.4,0-.7.2-1,.3-.4.6-.7,1.1-.9.2,0,.3-.1.5-.2.2,0,.4-.2.6-.2.7,0,1.1.3,1.1,1h0Z"/>
      <path class="cls-3" d="M604.9,401.2c.8,0,1.3.4,1.5,1.2.1.8-.2,1.5-.8,1.8-.6.3-1.2.2-1.6-.3-.5-.6-.6-1.3-.4-2,0-.4.4-.6.7-.6.2,0,.4,0,.6,0h0Z"/>
      <path class="cls-3" d="M599.6,388.6c-.5,0-.9-.1-1.2-.5,0,0-.1-.1-.2-.2-.4-.3-.5-.7-.5-1.2,0-.2.1-.5.2-.7.1-.3.4-.5.7-.6.7-.1.8-.2,1.3.4.4.4.6.8.8,1.3.3.7-.2,1.3-.9,1.4,0,0-.2,0-.2,0h0Z"/>
      <path class="cls-3" d="M606.1,380.2c-.8,0-1.4-.6-1.4-1.4,0-.2,0-.5,0-.7,0-.6.4-1,1-1.1.3,0,.5,0,.8.1.2.1.5.3.7.5.2.1.3.3.3.6,0,.3,0,.6,0,1-.1.6-.7,1.1-1.4,1.1h0Z"/>
      <path class="cls-3" d="M591.9,411.6c0,.3,0,.7-.3,1-.3.5-.9.7-1.3.4,0,0-.1,0-.2,0-.5,0-.8-.4-.9-.8,0-.2-.1-.5-.3-.7-.2-.3-.1-.6,0-.9.7-.9,1.9-.9,2.5,0,.2.3.3.7.3,1.1h0Z"/>
      <path class="cls-3" d="M633.2,409.3c0,.6-.2,1.2-.8,1.6-.2.1-.3.2-.5.2-.7.1-1.3-.3-1.3-1,0-.4,0-.9,0-1.3,0-.4.3-.7.6-.9.6-.4,1.4-.3,1.7.4.2.3.2.6.2,1.1h0Z"/>
      <path class="cls-3" d="M600.5,383.4c0-.5.2-1,.5-1.3,0,0,.1-.1.2-.2.8-.8,2-.3,2.2.7,0,.3,0,.5,0,.8-.2.6-.6,1-1.3,1.2-.7.2-1.3-.1-1.5-.7,0-.2,0-.4-.1-.5h0Z"/>
      <path class="cls-3" d="M593.2,416.4c.1,0,.3,0,.4,0,.3,0,.6,0,.9.1.5.3.8,1,.7,1.7-.2.6-.7,1.1-1.3,1.1-.5,0-.9-.2-1.2-.6-.3-.4-.4-.8-.4-1.2,0-.7.3-1.1,1-1.1h0Z"/>
      <path class="cls-3" d="M620.6,425.6c0,.6-.4,1.2-1,1.4-.5.2-1,0-1.4-.4-.5-.5-.7-1.2-.4-1.9.2-.6.7-.8,1.2-.8,0,0,0,0,0,0,.9.1,1.5.7,1.5,1.6h0Z"/>
      <path class="cls-3" d="M611.3,405.3c-.6,0-1.1-.4-1.3-.9-.2-.6,0-1.2.4-1.6.4-.3.8-.3,1.3-.1.3.1.6.3.7.6.2.4.2.8.1,1.2-.2.5-.6.9-1.2.9h0Z"/>
      <path class="cls-3" d="M165.6,402.1c0-.9,0-2.3,0-4.3,0-2,0-4.1,0-6.3s0-4.3,0-6.2c0-2,0-3.3,0-4.1,0-.5.2-1.3.5-2.3s.6-2.1,1-3.1.9-1.9,1.6-2.7,1.5-1.1,2.6-1.1c2.4,0,4.6.6,6.7,2,2.1,1.3,4.1,3,6.1,5.1,1.9,2.1,3.8,4.5,5.6,7.1,1.8,2.6,3.5,5.2,5.3,7.8,1.7,2.6,3.4,5,5.1,7.3,1.7,2.3,3.3,4.1,5,5.5,1.8-.8,3.2-2.3,4.2-4.4s1.8-4.6,2.5-7.4c.6-2.8,1.2-5.7,1.8-8.7s1.3-5.8,2.2-8.3,2.2-4.6,3.7-6.2,3.7-2.4,6.4-2.4,6.2,1.3,8.8,3.8,5,5.8,7.1,9.6c2.1,3.9,3.9,8.2,5.4,13,1.5,4.8,2.7,9.4,3.7,13.8,1,4.4,1.8,8.4,2.3,11.9.5,3.5.8,6.1.8,7.6s0,1.4-.1,2.1-.2,1.5-.5,2.1-.8,1.1-1.4,1.4-1.6.3-2.8,0c-.4,0-.8-.3-1.2-.6-.5-.3-1-.7-1.5-1.2-.5-.5-.9-1-1.3-1.5s-.5-.9-.5-1.2c-.6-3.5-1.4-7.5-2.2-11.8s-1.8-8.7-3-13.2c-1.2-4.5-2.7-8.8-4.5-13s-4.1-7.8-6.7-10.9c-2.1,1.2-3.7,2.9-4.9,5.3-1.2,2.4-2.2,4.9-3,7.7-.8,2.8-1.5,5.6-2.2,8.5s-1.5,5.5-2.6,7.9c-1.1,2.4-2.5,4.3-4.1,5.8-1.7,1.5-3.9,2.3-6.7,2.3s-3.9-.6-5.7-1.9c-1.8-1.3-3.6-2.9-5.4-5-1.7-2.1-3.4-4.3-5-6.8s-3.2-5-4.8-7.4c-1.6-2.4-3.1-4.7-4.6-6.8-1.5-2.1-3-3.8-4.5-5-.6,2.2-1,4.2-1.4,5.9s-.6,3.4-.8,4.9-.3,3.2-.3,4.9c0,1.7,0,3.5,0,5.5,0,3,.2,6.1.8,9.1.5,3,1.1,6,1.6,9s1.1,6,1.7,9,.8,6,.8,9.1v.9c-.1.2-.4.6-.9,1-.4.5-.9,1-1.4,1.5-.5.5-1,1-1.5,1.4-.5.4-.9.7-1.1.8,0,0-.2.1-.4.1-.2,0-.4.1-.6.1s-.3,0-.5-.1c-.2,0-.4-.1-.5-.1-.5-4.2-1.1-8.2-1.6-11.9-.6-3.8-1.1-7.5-1.6-11.2s-.9-7.4-1.2-11.2c-.3-3.8-.5-7.8-.5-12.1h0Z"/>
      <path class="cls-3" d="M260.9,374.1c1.1.5,2,1.2,2.8,2.3.8,1,1.1,2,1,2.9,0,.9-.8,1.4-2,1.8s-3.3,0-6.1-1c0-1.6.3-3,.9-4.1.6-1.2,1.7-1.8,3.4-1.8h0ZM259.7,407.1c0-.4,0-.9,0-1.7,0-.8,0-1.6,0-2.5,0-.9,0-1.7,0-2.5,0-.8,0-1.4,0-1.8.6-.9,1.5-1.7,2.5-2.3,1-.6,2.1-1,3.1-1.4.2,3.2.7,6.5,1.5,10.1.8,3.6,1.7,7.2,2.6,10.8.9,3.6,1.8,7.2,2.5,10.7s1.1,6.8,1.1,9.8-1.4,4-4,4-3-.7-4.1-2c-1.1-1.4-2-3.1-2.7-5.1-.7-2.1-1.2-4.4-1.6-6.9s-.7-5-.8-7.5c-.1-2.5-.2-4.7-.3-6.8s0-3.6,0-4.8h0Z"/>
      <path class="cls-3" d="M281.7,374.1c1.1.5,2,1.2,2.8,2.3.8,1,1.1,2,1,2.9,0,.9-.8,1.4-2,1.8s-3.3,0-6.1-1c0-1.6.3-3,.9-4.1.6-1.2,1.7-1.8,3.4-1.8h0ZM280.4,407.1c0-.4,0-.9,0-1.7,0-.8,0-1.6,0-2.5,0-.9,0-1.7,0-2.5,0-.8,0-1.4,0-1.8.6-.9,1.5-1.7,2.5-2.3,1-.6,2.1-1,3.1-1.4.2,3.2.7,6.5,1.5,10.1.8,3.6,1.7,7.2,2.6,10.8.9,3.6,1.8,7.2,2.5,10.7s1.1,6.8,1.1,9.8-1.4,4-4,4-3-.7-4.1-2c-1.1-1.4-2-3.1-2.7-5.1-.7-2.1-1.2-4.4-1.6-6.9s-.7-5-.8-7.5c-.1-2.5-.2-4.7-.3-6.8s0-3.6,0-4.8h0Z"/>
      <path class="cls-3" d="M301.4,436.3c-.2-.9-.5-2.3-.9-4-.4-1.8-.8-3.7-1.2-5.8s-.9-4.3-1.3-6.6c-.4-2.3-.8-4.6-1.1-6.8s-.6-4.2-.8-6.1c-.2-1.9-.3-3.4-.3-4.5s0-1.4.2-2.7c.1-1.3.3-2.6.5-4,.2-1.4.5-2.7.7-4,.2-1.2.4-2.1.6-2.5.2,0,.5,0,.9,0s.9,0,1.4,0,1-.1,1.4-.1.8,0,.9,0c2.8,0,5.5.6,8,1.7,2.5,1.1,4.9,2.5,7.2,4.2,2.3,1.7,4.5,3.6,6.7,5.7,2.2,2.1,4.4,4.2,6.5,6.1,2.2,2,4.4,3.8,6.7,5.4,2.3,1.6,4.7,2.8,7.3,3.6,0-.3,0-.8,0-1.4,0-.6,0-1.3,0-2s0-1.4,0-2c0-.6,0-1.1,0-1.4,0-3.7-.2-7.3-.7-10.8s-1-7-1.6-10.5c-.6-3.5-1.1-7-1.6-10.6-.5-3.5-.7-7.2-.7-10.9.4,0,.9,0,1.5,0s1.2.1,1.9.3c.6.1,1.2.4,1.8.7s.9.8,1,1.5c.2,4.2.8,8.5,1.6,12.7.8,4.2,1.7,8.5,2.5,12.7.9,4.2,1.7,8.5,2.3,12.7.7,4.2,1,8.5,1,12.6s0,1.6,0,2.5-.1,1.7-.4,2.5c-.2.8-.5,1.5-1,2s-1.2.8-2.1.8c-3,0-5.9-.7-8.4-2.1-2.6-1.4-5.1-3.1-7.5-5.1-2.4-2-4.8-4.3-7.1-6.8s-4.7-4.7-7.1-6.8-5-3.8-7.6-5.2-5.4-2.1-8.4-2.1c0,3.3.2,6.4.7,9.5.5,3,1,6,1.5,9,.6,3,1.1,6,1.5,8.9.5,3,.7,6,.7,9s-.4,1.9-1.2,2.3-1.7.6-2.6.6-1.5,0-2.1-.2c-.7-.1-1.2-.8-1.5-1.8h0Z"/>
      <path class="cls-3" d="M376.7,362.9c.4-1,.9-1.7,1.5-1.9.7-.2,1.5-.3,2.3-.3,1.4,0,2.9.9,4.5,2.7,1.7,1.8,3.4,4.2,5.1,7.2s3.5,6.4,5.3,10.3c1.8,3.9,3.5,7.9,5.2,12s3.2,8.2,4.7,12.4c1.5,4.1,2.7,7.9,3.8,11.3,1.1,3.4,1.9,6.4,2.5,8.9.6,2.5.9,4.2.9,5.2s-.2,1.8-.7,2.7-1.2,1.3-2.3,1.3-1.3-.2-1.8-.7-.9-1-1.3-1.6c-.4-.6-.7-1.3-1-1.9-.3-.6-.6-1.2-.8-1.7-.2-.6-.7-1.9-1.5-3.7-.7-1.8-1.5-3.7-2.3-5.7-.8-2-1.5-3.9-2.2-5.6s-1.2-3-1.5-3.8c-4.1-.7-8.2-1.4-12.4-2s-8.5-1.2-13-1.8h-1c-2.1,9.1-4,16.3-5.6,21.5s-3,9-4,11.2c-1.1,2.2-1.9,3.1-2.5,2.8s-1-1.7-1.2-4c-.2-2.3-.2-5.4,0-9.3s.8-8.1,1.5-12.8c.7-4.7,1.6-9.5,2.7-14.6s2.3-10,3.8-14.8,3.2-9.1,5-13.2c1.9-4.1,3.9-7.4,6-10.1h0ZM374.6,393.8c0,2.2.7,3.8,2.1,4.8,1.4,1,3.1,1.7,5.1,2,2,.3,4.1.4,6.3.4,2.2,0,4.1,0,5.7,0,0-2.3-.4-4.9-1.1-7.6s-1.7-5.4-2.9-8.1c-1.2-2.7-2.4-5.3-3.7-7.9s-2.5-4.9-3.6-6.9c-.6.6-1.3,1.8-2.1,3.6-.7,1.7-1.5,3.7-2.2,5.8-.7,2.1-1.4,4.2-2,6.3s-1,3.7-1.3,5c0,.2,0,.6,0,1.4,0,.7,0,1.2,0,1.5h0Z"/>
      <path class="cls-3" d="M456.6,408.8c0-2.9.4-5.9,1.3-9,.9-3,2-6,3.5-8.9,1.5-2.9,3.3-5.6,5.4-8.2,2.1-2.6,4.4-4.8,6.9-6.7,2.5-1.9,5.3-3.4,8.2-4.5,2.9-1.1,5.9-1.6,9-1.6s3.1.1,5.2.4,4.2.8,6.2,1.5,3.8,1.6,5.2,2.8c1.4,1.1,2.1,2.5,2.1,4.1s0,.2,0,.3,0,.2,0,.3c0,.1,0,.2,0,.4-.1.2-.4.5-.9,1s-.8.8-1,.9c-.1,0-.3,0-.4,0-.2,0-.4,0-.5,0s-.4,0-.5,0c-.1,0-.2,0-.4,0-.3-.2-1-.5-2.1-1.1s-2.3-1.2-3.6-1.8c-1.3-.6-2.5-1.2-3.6-1.8-1.1-.6-1.8-.9-2.1-1-.2,0-.5,0-.7,0-.2,0-.4,0-.5,0s-.3,0-.4,0c-2.8,0-5.4.5-7.9,1.5-2.5,1-4.8,2.4-6.9,4.1s-4,3.8-5.7,6.1-3.1,4.7-4.4,7.2-2.1,5.2-2.7,7.8c-.6,2.7-.9,5.3-.9,7.8s.5,6.2,1.6,8.8c1,2.6,2.5,4.7,4.4,6.5,1.9,1.7,4.1,3,6.7,3.9,2.6.9,5.4,1.3,8.5,1.3s3.9-.2,6.5-.7c2.6-.5,5-1.2,7.4-2.3s4.4-2.4,6-4.1,2.5-3.7,2.5-6.2-.1-1.8-.4-2.3-.7-1-1.2-1.2-1.2-.4-1.9-.4c-.8,0-1.5,0-2.4,0-1.3,0-2.4.2-3.3.6s-1.9.9-2.8,1.4-1.8,1-2.7,1.4c-.9.4-2,.6-3.2.6s-2.7-.2-3.6-.7-1.3-1.5-1.3-3.2.6-3,1.8-4c1.2-1,2.6-1.8,4.3-2.3s3.4-.9,5.2-1,3.3-.3,4.5-.3c2.1,0,4.1.2,5.9.5s3.4.9,4.7,1.8,2.3,2,3,3.5,1,3.4,1,5.8c0,3.6-1,6.8-3,9.5s-4.5,4.9-7.5,6.5c-3,1.7-6.3,3-9.8,3.8-3.5.9-6.7,1.3-9.7,1.3s-8.1-.7-11.6-2.2c-3.5-1.5-6.6-3.5-9.1-6.2-2.5-2.7-4.5-5.8-5.9-9.5s-2.1-7.6-2.1-11.8h0Z"/>
      <path class="cls-3" d="M518.7,378c0-.5,0-1.2,0-2.3,0-1.1,0-2.2,0-3.4s0-2.3,0-3.4c0-1.1,0-1.8,0-2.2.6-1.2,1.7-2.1,3-2.7,1.4-.6,2.9-.9,4.5-1.1,1.6-.2,3.2-.3,4.8-.2,1.5,0,2.8,0,3.8,0s2.8,0,4.5.2c1.7.1,3.5.3,5.2.7s3.4.8,5.1,1.4,3.2,1.4,4.5,2.4,2.4,2.1,3.2,3.5c.8,1.4,1.2,3,1.2,4.9s-.5,4.2-1.6,6c-1,1.8-2.4,3.5-3.9,5s-3.2,3-5.1,4.4-3.5,2.7-5.1,4c-1.5,1.3-2.9,2.6-3.9,4s-1.6,2.8-1.6,4.4,0,.3.1.5c0,.2.1.3.1.4,6.9,2,13.6,4.5,20.2,7.5,6.5,2.9,13,6.1,19.3,9.5.2.1.4.3.6.7.2.3.4.7.6,1.1s.3.8.5,1.2.3.6.3.9c0,.5-.2.9-.4,1.2-.3.3-.7.5-1,.6-.4.1-.8.2-1.2.2h-1c-3.2,0-6.3-.7-9.5-2.1-3.1-1.4-6.3-2.9-9.5-4.6-3.2-1.7-6.4-3.2-9.6-4.7s-6.6-2.1-10.2-2.1h-2.8c.9,2.2,1.8,4.1,2.5,5.8.7,1.7,1.3,3.3,1.8,4.9.5,1.6.9,3.2,1.1,4.8.3,1.6.4,3.4.4,5.2v1.5c0,.6,0,1.1,0,1.7,0,.6-.2,1.1-.5,1.6-.3.5-.8.8-1.4,1-2.4-1.4-4.6-3.6-6.5-6.5s-3.6-6.3-5-10.1-2.6-7.9-3.6-12.1-1.8-8.5-2.4-12.6-1-8-1.3-11.6-.4-6.6-.4-9h0ZM526.3,383.5c0,.8,0,1.7-.1,2.9s0,2.4,0,3.7.2,2.5.6,3.6.9,2.1,1.6,2.9c.1,0,.2,0,.3,0,0,0,.2,0,.4,0,1,0,2.3-.3,3.8-1,1.5-.6,3.1-1.5,4.7-2.5,1.6-1,3.3-2.3,4.9-3.6s3.1-2.8,4.3-4.3c1.3-1.5,2.3-2.9,3.1-4.4s1.2-2.9,1.2-4.1-.4-2.2-1.3-3-1.9-1.5-3.2-2.1-2.5-.9-3.8-1.1-2.4-.4-3.2-.4-2.2,0-3.5,0c-1.3,0-2.7,0-4,.3-1.3.2-2.5.6-3.6,1.1s-1.8,1.3-2.2,2.4v4.7c0,1,0,2,0,2.9,0,.9,0,1.5,0,1.9h0Z"/>
      <path class="cls-3" d="M653.2,379.7c.9.7,1.7,1.6,2.3,2.6.6,1,1,2.1,1.4,3.1,0,2.2,0,4.9,0,8s.1,6.3.3,9.7c.2,3.3.7,6.7,1.3,10,.6,3.3,1.7,6.3,3,8.9,1.4,2.6,3.2,4.8,5.5,6.4,2.3,1.6,5.2,2.4,8.8,2.4s6-.8,8.3-2.3c2.3-1.5,4.2-3.5,5.8-5.8s2.7-5,3.4-7.9c.7-2.9,1.1-5.7,1.1-8.5,0-5.3-.3-10.8-.8-16.3s-1.5-10.9-2.9-16c.4-1,.9-1.7,1.6-1.8.6-.1,1.3-.2,2.1-.2,1.5,0,2.7.6,3.6,1.9s1.5,2.8,2,4.7c.4,1.9.7,4,.8,6.2,0,2.3,0,4.4,0,6.4s-.2,3.8-.3,5.4c-.2,1.5-.2,2.5-.2,2.9,0,3,0,6.1-.2,9.3-.2,3.1-.5,6.1-1,9-.6,2.9-1.4,5.5-2.5,8-1.1,2.5-2.5,4.7-4.3,6.5-1.8,1.9-4.1,3.3-6.8,4.4-2.7,1-5.9,1.6-9.7,1.6s-8.6-.9-11.7-2.7c-3-1.8-5.5-4.2-7.3-7.2-1.8-3-3.2-6.5-4.1-10.3-.9-3.9-1.5-7.8-1.9-11.9-.4-4-.7-8-.8-12-.2-3.9-.3-7.5-.6-10.6l3.8-3.8h0Z"/>
      <path class="cls-3" d="M704.9,370.6c0-1.8.3-3.3,1-4.5s1.6-2.1,2.8-2.9c1.2-.7,2.5-1.3,3.9-1.6,1.4-.4,2.9-.6,4.5-.8s3.1-.2,4.5-.2c1.5,0,2.8,0,4,0,2.4,0,4.8.2,7.2.7,2.4.5,4.5,1.3,6.4,2.5,1.8,1.2,3.3,2.7,4.5,4.7,1.2,2,1.8,4.4,1.8,7.3s-.5,5.1-1.5,7.7c-1,2.5-2.3,5-4,7.3-1.6,2.3-3.4,4.4-5.5,6.3-2,1.9-4.1,3.5-6.1,4.9-2,1.4-4,2.4-5.8,3.2-1.8.8-3.4,1-4.6.9-.7,2.3-1.1,4.7-1.3,7.3-.2,2.6-.2,5.2-.1,7.6s.2,4.9.3,7.1c.1,2.3,0,4.2-.3,5.8s-.9,2.8-1.8,3.6-2.2,1-4,.8c-.5-4.2-.9-8.4-1.2-12.7-.3-4.3-.5-8.5-.7-12.7s-.3-8.3-.5-12.4c-.2-4-.3-7.8-.6-11.5-.3-3.6-.6-7-1.1-10.2-.5-3.2-1-6-1.8-8.4h0ZM726.6,368.3c-.9,0-2,0-3.2,0s-2.5.2-3.7.6-2.2.9-3,1.7-1.2,1.9-1.2,3.4v23c2.4,0,5-.6,7.7-1.9,2.7-1.3,5.2-2.9,7.4-4.9,2.2-2,4.1-4.2,5.5-6.8,1.5-2.5,2.2-5,2.2-7.5s-.3-3.2-1-4.2-1.5-1.8-2.6-2.3c-1.1-.5-2.3-.9-3.7-1-1.3-.1-2.8-.2-4.2-.2h0Z"/>
      <path class="cls-2" d="M440.9,434.4c0,3.6-1.4,6.9-3.1,9.9-1.6,2.9-3.6,5.7-5.8,8.2-2.9,3.2-5.8,6.5-8.7,9.7-.2.2-.5.5-.7.7-.2.1-.3.3-.5.4-.5.2-.9,0-.9-.6,0-.2,0-.4,0-.6.2-.6.4-1.2.6-1.8,1.8-4.8,3.4-9.6,5.1-14.4,1-2.7,2.1-5.4,3.4-8,1.3-2.5,3.1-4.6,5.6-6.1.4-.2.8-.4,1.1-.6,1.6-.9,3.7,0,3.9,2.2,0,.4,0,.7,0,1h0Z"/>
      <path class="cls-2" d="M460.6,448c2,3,2.8,6.4,3.2,9.9.4,3.3.4,6.7,0,10-.5,4.3-.9,8.6-1.4,13,0,.3,0,.7-.2,1,0,.2-.1.4-.2.6-.3.5-.8.5-1.1,0-.1-.2-.2-.4-.3-.6-.2-.6-.4-1.2-.6-1.8-1.3-4.9-2.8-9.8-4.2-14.7-.8-2.8-1.4-5.6-1.8-8.5-.4-2.8-.1-5.6,1-8.2.2-.4.4-.8.6-1.2.8-1.6,3-2.2,4.4-.4.2.3.4.6.6.9Z"/>
    </g>
  </g>
</svg>